<svg width="18" height="18" viewBox="0 0 18 18" fill="none" xmlns="http://www.w3.org/2000/svg">
<path d="M13.5006 10.6367C13.3179 10.8137 13.2339 11.0698 13.2756 11.3209L13.9027 14.7916C13.9556 15.0858 13.8314 15.3835 13.5852 15.5535C13.344 15.7298 13.023 15.751 12.7599 15.6099L9.63556 13.9804C9.52692 13.9225 9.4063 13.8915 9.28285 13.888H9.09168C9.02537 13.8979 8.96047 13.919 8.90121 13.9515L5.77617 15.5888C5.62168 15.6664 5.44674 15.6939 5.27532 15.6664C4.85771 15.5874 4.57906 15.1895 4.64749 14.7698L5.27532 11.2991C5.31694 11.0458 5.23299 10.7883 5.05029 10.6085L2.50299 8.13946C2.28996 7.93277 2.21589 7.62238 2.31323 7.34233C2.40776 7.06298 2.64902 6.85911 2.94036 6.81326L6.44633 6.30465C6.71298 6.27714 6.94718 6.11489 7.0671 5.87504L8.61199 2.70768C8.64867 2.63714 8.69593 2.57224 8.75307 2.51721L8.81656 2.46783C8.84971 2.43115 8.88781 2.40082 8.93013 2.37613L9.00703 2.34791L9.12695 2.29853H9.42393C9.68917 2.32604 9.92267 2.48476 10.0447 2.72179L11.61 5.87504C11.7229 6.10572 11.9423 6.26585 12.1956 6.30465L15.7015 6.81326C15.9978 6.85559 16.2454 7.06016 16.3435 7.34233C16.4359 7.62521 16.3562 7.93559 16.1389 8.13946L13.5006 10.6367Z" fill="#F9B023"/>
</svg>
